<?xml version="1.0" encoding="UTF-8"?>
<!DOCTYPE svg PUBLIC "-//W3C//DTD SVG 1.1//EN" "http://www.w3.org/Graphics/SVG/1.1/DTD/svg11.dtd">
<!-- Creator: CorelDRAW 2018 (64 Bit Versão de avaliação) -->
<svg xmlns="http://www.w3.org/2000/svg" xml:space="preserve" width="200px" height="200px" version="1.1" style="shape-rendering:geometricPrecision; text-rendering:geometricPrecision; image-rendering:optimizeQuality; fill-rule:evenodd; clip-rule:evenodd"
viewBox="0 0 12.6 12.6"
 xmlns:xlink="http://www.w3.org/1999/xlink">
 <defs>
  <style type="text/css">
   <![CDATA[
    .fil0 {fill:#ffffff}
   ]]>
  </style>
 </defs>
 <g id="Camada_x0020_1">
  <metadata id="CorelCorpID_0Corel-Layer"/>
  <g id="_2893903401600">
   <path class="fil0" d="M6.3 0c1.72,0 3.28,0.56 4.41,1.46 1.17,0.93 1.89,2.21 1.89,3.64 0,0.75 -0.2,1.46 -0.56,2.11 -0.34,0.6 -0.82,1.14 -1.4,1.59 -0.18,0.88 -0.56,1.66 -1.21,2.31 -0.68,0.67 -1.66,1.18 -3.03,1.48 -0.26,0.05 -0.5,-0.11 -0.56,-0.36 -0.03,-0.19 0.04,-0.37 0.18,-0.47 0.42,-0.34 0.61,-0.63 0.6,-0.88 -0.01,-0.21 -0.17,-0.44 -0.47,-0.68 -1.66,-0.03 -3.16,-0.58 -4.26,-1.46 -1.17,-0.92 -1.89,-2.21 -1.89,-3.64 0,-1.43 0.72,-2.71 1.89,-3.64 1.13,-0.9 2.69,-1.46 4.41,-1.46zm3.84 2.19c-0.98,-0.78 -2.34,-1.26 -3.84,-1.26 -1.5,0 -2.86,0.48 -3.84,1.26 -0.94,0.75 -1.53,1.78 -1.53,2.91 0,1.13 0.59,2.16 1.53,2.92 0.98,0.77 2.34,1.25 3.84,1.25l0 0c0.09,0 0.19,0.03 0.27,0.09 0.61,0.44 0.96,0.94 0.98,1.49 0.01,0.14 -0.01,0.28 -0.05,0.42 0.53,-0.22 0.95,-0.5 1.28,-0.83 0.54,-0.53 0.84,-1.21 0.97,-1.98l0 0c0.02,-0.11 0.09,-0.22 0.19,-0.3 0.55,-0.39 0.99,-0.87 1.29,-1.4 0.28,-0.51 0.44,-1.07 0.44,-1.66 0,-1.13 -0.59,-2.16 -1.53,-2.91z"/>
   <g>
    <polygon class="fil0" points="3.56,2.85 8.99,2.85 8.99,3.78 3.56,3.78 "/>
    <polygon class="fil0" points="3.56,4.67 8.99,4.67 8.99,5.6 3.56,5.6 "/>
    <polygon class="fil0" points="3.56,6.5 8.99,6.5 8.99,7.43 3.56,7.43 "/>
   </g>
  </g>
 </g>
</svg>
