<?xml version="1.0" encoding="UTF-8"?>
<!DOCTYPE svg PUBLIC "-//W3C//DTD SVG 1.1//EN" "http://www.w3.org/Graphics/SVG/1.1/DTD/svg11.dtd">
<!-- Creator: CorelDRAW 2018 (64 Bit Versão de avaliação) -->
<svg xmlns="http://www.w3.org/2000/svg" xml:space="preserve" width="200px" height="142px" version="1.1" style="shape-rendering:geometricPrecision; text-rendering:geometricPrecision; image-rendering:optimizeQuality; fill-rule:evenodd; clip-rule:evenodd"
viewBox="0 0 21.11 14.95"
 xmlns:xlink="http://www.w3.org/1999/xlink">
 <defs>
  <style type="text/css">
   <![CDATA[
    .fil0 {fill:#4c4c4c}
   ]]>
  </style>
 </defs>
 <g id="Camada_x0020_1">
  <metadata id="CorelCorpID_0Corel-Layer"/>
  <path class="fil0" d="M19.4 12.27c-0.02,1.48 -1.23,2.68 -2.72,2.68 -1.49,0 -2.69,-1.2 -2.72,-2.68l-0.9 0c-0.45,0 -0.81,-0.36 -0.81,-0.81l0 -8.85c0,-0.44 0.36,-0.81 0.81,-0.81l4.11 0c0.44,0 0.72,0.44 0.96,0.81l2.98 4.62 0 4.23c0,0.45 -0.36,0.81 -0.81,0.81l-0.9 0zm-18.5 -12.27l9.62 0c0.49,0 0.9,0.41 0.9,0.9l0 10.43c0,0.49 -0.41,0.9 -0.9,0.9l-2.5 0c0,1.5 -1.22,2.72 -2.72,2.72 -1.5,0 -2.72,-1.22 -2.72,-2.72l-1.68 0c-0.49,0 -0.9,-0.41 -0.9,-0.9l0 -10.43c0,-0.49 0.41,-0.9 0.9,-0.9zm4.4 10.75c0.82,0 1.48,0.66 1.48,1.48 0,0.81 -0.66,1.48 -1.48,1.48 -0.82,0 -1.48,-0.67 -1.48,-1.48 0,-0.82 0.66,-1.48 1.48,-1.48zm11.38 0c0.82,0 1.48,0.66 1.48,1.48 0,0.81 -0.66,1.48 -1.48,1.48 -0.82,0 -1.48,-0.67 -1.48,-1.48 0,-0.82 0.66,-1.48 1.48,-1.48zm-1.57 -7.34l1.83 0c0.09,0 0.14,0.1 0.19,0.17l2.36 3.39c0.05,0.07 -0.07,0.17 -0.17,0.17l-4.21 0c-0.1,0 -0.17,-0.08 -0.17,-0.17l0 -3.39c0,-0.09 0.07,-0.17 0.17,-0.17z"/>
 </g>
</svg>
