<?xml version="1.0" encoding="UTF-8"?>
<!DOCTYPE svg PUBLIC "-//W3C//DTD SVG 1.1//EN" "http://www.w3.org/Graphics/SVG/1.1/DTD/svg11.dtd">
<!-- Creator: CorelDRAW 2018 (64 Bit Versão de avaliação) -->
<svg xmlns="http://www.w3.org/2000/svg" xml:space="preserve" width="200px" height="121px" version="1.1" style="shape-rendering:geometricPrecision; text-rendering:geometricPrecision; image-rendering:optimizeQuality; fill-rule:evenodd; clip-rule:evenodd"
viewBox="0 0 8.98 5.41"
 xmlns:xlink="http://www.w3.org/1999/xlink">
 <defs>
  <style type="text/css">
   <![CDATA[
    .fil0 {fill:#ffffff}
   ]]>
  </style>
 </defs>
 <g id="Camada_x0020_1">
  <metadata id="CorelCorpID_0Corel-Layer"/>
  <path class="fil0" d="M0 4.78c0,0.23 0.21,0.23 0.43,0.27 1.28,0.26 1.16,-0.02 2.31,-0.02 0.91,0 1.92,0.73 4.69,0.18l1.24 -0.17c0.26,-0.04 0.31,0.02 0.31,-0.26 0,-0.74 -0.57,-1.08 -0.64,-1.21 -0.05,-0.09 0,-0.01 -0.02,-0.11 -0.04,-0.26 -0.38,-0.82 -0.6,-0.99 -0.15,-0.11 -0.66,-0.4 -0.77,-0.58 -0.18,-0.28 -0.01,-0.13 -0.01,-0.36 0,-0.15 -0.28,-0.52 -0.37,-0.58 -0.18,-0.13 -0.42,-0.13 -0.69,-0.34 -0.49,-0.38 -0.27,-0.61 -1.61,-0.61 -0.58,0 -1.12,0.43 -1.29,0.94 -0.22,0.65 -0.72,0.7 -1.25,1.04 -0.58,0.37 -0.48,0.89 -0.77,1.46 -0.19,0.38 -0.96,0.92 -0.96,1.34z"/>
 </g>
</svg>
