<?xml version="1.0" encoding="UTF-8"?>
<!DOCTYPE svg PUBLIC "-//W3C//DTD SVG 1.1//EN" "http://www.w3.org/Graphics/SVG/1.1/DTD/svg11.dtd">
<!-- Creator: CorelDRAW 2018 (64 Bit Versão de avaliação) -->
<svg xmlns="http://www.w3.org/2000/svg" xml:space="preserve" width="199px" height="200px" version="1.1" style="shape-rendering:geometricPrecision; text-rendering:geometricPrecision; image-rendering:optimizeQuality; fill-rule:evenodd; clip-rule:evenodd"
viewBox="0 0 7.76 7.81"
 xmlns:xlink="http://www.w3.org/1999/xlink">
 <defs>
  <style type="text/css">
   <![CDATA[
    .fil0 {fill:#02a859}
   ]]>
  </style>
 </defs>
 <g id="Camada_x0020_1">
  <metadata id="CorelCorpID_0Corel-Layer"/>
  <g id="_2893903433440">
   <path class="fil0" d="M0 5.31c0,0.02 0.02,0.05 0.02,0.06l0.06 0.12c0.01,0.02 0.02,0.04 0.02,0.06l0.08 0.17c0.01,0.03 0.02,0.04 0.03,0.07l0.19 0.41c0.01,0.02 0.02,0.04 0.03,0.06 0.05,0.11 0.1,0.24 0.15,0.35 0.01,0.02 0.02,0.04 0.03,0.06 0.01,0.02 0.02,0.04 0.03,0.06 0.01,0.02 0.02,0.04 0.03,0.06l0.08 0.18c0.02,0.07 0.06,0.14 0.09,0.21 0.01,0.01 0.01,0.02 0.01,0.03 0.03,-0.02 0.06,-0.04 0.09,-0.06 0.13,-0.08 0.31,-0.2 0.43,-0.27 0.16,-0.09 0.29,-0.11 0.45,-0.05 0.07,0.03 0.14,0.06 0.2,0.1 0.03,0.01 0.06,0.03 0.09,0.04 0.25,0.13 0.5,0.27 0.75,0.39 0.32,0.16 0.79,0.45 1.12,0.45 0.16,0 0.26,-0.01 0.4,-0.07 0.14,-0.05 0.24,-0.13 0.37,-0.21l0.41 -0.25c0.14,-0.09 0.29,-0.19 0.41,-0.27 0.08,-0.05 0.16,-0.1 0.24,-0.15l1.16 -0.77c0.07,-0.05 0.15,-0.1 0.22,-0.15 0.03,-0.02 0.04,-0.03 0.06,-0.04 0.02,-0.01 0.04,-0.03 0.06,-0.04 0.11,-0.07 0.24,-0.16 0.32,-0.26 0.01,-0.01 0.01,-0.01 0.02,-0.02 0.05,-0.06 0.11,-0.15 0.11,-0.23l0 -0.05c0,-0.11 -0.09,-0.21 -0.17,-0.26 -0.19,-0.12 -0.45,-0.05 -0.63,0.04 -0.17,0.08 -0.34,0.18 -0.5,0.28 -0.13,0.08 -0.26,0.15 -0.39,0.23 -0.13,0.08 -0.26,0.16 -0.4,0.23 0,0.02 0.01,0.04 0.02,0.07 0.03,0.13 -0.01,0.31 -0.08,0.41 -0.1,0.14 -0.25,0.22 -0.42,0.27 -0.09,0.02 -0.2,0.04 -0.31,0.04l-1.3 0c-0.11,0 -0.24,-0.03 -0.32,-0.06 -0.24,-0.1 -0.36,-0.2 -0.55,-0.34l-0.05 -0.05c-0.01,-0.01 -0.02,-0.01 -0.03,-0.02 -0.02,-0.02 -0.05,-0.05 -0.07,-0.07 0.02,0 0.03,0.01 0.05,0.02 0.1,0.03 0.2,0.07 0.3,0.1 0.22,0.06 0.43,0.12 0.67,0.12l1.28 0c0.16,0 0.54,-0.07 0.54,-0.28l0 -0.04c0,-0.21 -0.17,-0.24 -0.35,-0.26 -0.17,-0.02 -0.41,-0.02 -0.58,-0.02 -0.35,0 -0.78,-0.14 -1.06,-0.31 -0.07,-0.04 -0.15,-0.11 -0.22,-0.16l-0.49 -0.34c-0.06,-0.04 -0.12,-0.08 -0.19,-0.12 -0.18,-0.09 -0.35,-0.19 -0.57,-0.19 -0.13,0 -0.23,0.01 -0.36,0.05 -0.16,0.04 -0.31,0.11 -0.47,0.17 -0.11,0.05 -0.22,0.1 -0.33,0.15 -0.02,0.01 -0.04,0.02 -0.06,0.02l-0.55 0.26c-0.02,0 -0.04,0.01 -0.06,0.02 -0.01,0.01 -0.03,0.02 -0.05,0.03 -0.02,0 -0.04,0.02 -0.06,0.02z"/>
   <path class="fil0" d="M5.44 0.86c0.02,0.01 0.03,0.04 0.05,0.06 0.09,0.11 0.2,0.3 0.27,0.43 0.17,0.35 0.24,0.77 0.24,1.17 0,0.06 0.01,0.13 0.01,0.2 -0.01,0.06 0,0.13 -0.01,0.19 0,0.06 -0.01,0.13 -0.01,0.19l-0.03 0.38c0.07,0.01 0.11,0.02 0.18,0.01 0.05,-0.01 0.11,-0.03 0.15,-0.05 0.17,-0.08 0.29,-0.23 0.39,-0.39 0.11,-0.19 0.19,-0.45 0.2,-0.67 0.02,-0.17 0.02,-0.29 0,-0.46 -0.04,-0.21 -0.12,-0.4 -0.22,-0.57 -0.04,-0.06 -0.08,-0.11 -0.12,-0.17 -0.02,-0.02 -0.03,-0.03 -0.05,-0.05 -0.05,-0.07 -0.15,-0.18 -0.21,-0.23l-0.52 -0.42 -0.41 -0.27c-0.02,-0.02 -0.03,-0.03 -0.06,-0.05l-0.17 -0.12c-0.01,-0.01 -0.03,-0.03 -0.05,-0.04 0,0.04 -0.03,0.13 -0.04,0.17 -0.01,0.02 -0.02,0.05 -0.03,0.07l-0.04 0.08c-0.02,0.05 -0.04,0.09 -0.07,0.14 -0.05,0.08 -0.11,0.17 -0.17,0.25 -0.09,0.13 -0.18,0.25 -0.27,0.38 -0.11,0.17 -0.21,0.36 -0.28,0.57 -0.07,0.19 -0.13,0.52 -0.13,0.72 0,0.04 -0.01,0.07 -0.01,0.1 0,0.03 0.01,0.02 0.01,0.05 0,0.09 0.01,0.15 0.02,0.24 0.11,0.53 0.54,0.68 1.03,0.68l0.2 0.01c0.1,0.02 0.11,0.02 0.1,0.11 -0.02,0.2 -0.08,0.38 -0.18,0.56 -0.02,0.02 -0.03,0.04 -0.04,0.06 -0.14,0 -0.28,0.08 -0.37,0.15 -0.04,0.04 -0.13,0.12 -0.13,0.18 -0.02,-0.01 -0.02,-0.02 -0.04,-0.04 -0.01,-0.01 -0.01,-0.01 -0.02,-0.02 -0.04,-0.03 -0.08,-0.05 -0.13,-0.06 -0.16,-0.05 -0.36,-0.04 -0.49,0.07 -0.03,0.02 -0.06,0.06 -0.08,0.08 -0.02,0.03 -0.04,0.07 -0.06,0.1 -0.19,-0.04 -0.4,0.02 -0.51,0.17 -0.01,0.03 -0.03,0.05 -0.04,0.08 -0.01,0.05 0.01,0.06 0.04,0.08 0.03,0.02 0.07,0.07 0.12,0.11 0.07,0.05 0.14,0.1 0.22,0.14 0.09,0.04 0.15,0.07 0.25,0.11 0.23,0.09 0.56,0.13 0.8,0.14 0.02,0.01 0.02,0.01 0.05,0.01 0.1,0 0.33,0 0.4,0.01 0.08,0.01 0.14,0.02 0.2,0.05 0.04,0.01 0.08,0.03 0.11,0.06 0.02,0.01 0.03,0.02 0.04,0.02 0.03,0 0.05,-0.02 0.08,-0.04l0.39 -0.23c0.06,-0.03 0.11,-0.06 0.16,-0.09l0.16 -0.09c0.06,-0.03 0.11,-0.06 0.16,-0.09 0.03,-0.02 0.05,-0.03 0.08,-0.05l0.24 -0.14c0,-0.03 -0.04,-0.1 -0.05,-0.13l-0.06 -0.08c-0.14,-0.16 -0.33,-0.25 -0.56,-0.21 -0.05,0 -0.1,0.02 -0.14,0.04 -0.04,0.01 -0.1,0.05 -0.13,0.06 -0.03,-0.11 -0.13,-0.22 -0.22,-0.27 -0.01,-0.01 -0.01,-0.01 -0.02,-0.02 -0.01,0 -0.02,-0.01 -0.03,-0.01 -0.01,-0.01 -0.04,-0.02 -0.06,-0.03 0.01,-0.02 0.01,-0.03 0.02,-0.04l0.05 -0.14c0.07,-0.2 0.1,-0.4 0.13,-0.62 0.01,-0.03 0.01,-0.07 0.02,-0.11 0,-0.07 0.02,-0.15 0.02,-0.23l0.01 -0.29c0,-0.03 0.01,-0.04 0.01,-0.06 0,-0.02 0,-0.04 0,-0.06 0,-0.03 0,-0.04 0,-0.06 0,-0.04 0,-0.09 0,-0.13 0.01,-0.04 0.01,-0.08 0.01,-0.12 0,-0.12 -0.02,-0.24 -0.02,-0.36 -0.02,-0.22 -0.1,-0.5 -0.16,-0.71l-0.11 -0.28c-0.02,-0.05 -0.05,-0.13 -0.07,-0.18z"/>
  </g>
 </g>
</svg>
