<?xml version="1.0" encoding="UTF-8"?>
<!DOCTYPE svg PUBLIC "-//W3C//DTD SVG 1.1//EN" "http://www.w3.org/Graphics/SVG/1.1/DTD/svg11.dtd">
<!-- Creator: CorelDRAW 2018 (64 Bit Versão de avaliação) -->
<svg xmlns="http://www.w3.org/2000/svg" xml:space="preserve" width="200px" height="200px" version="1.1" style="shape-rendering:geometricPrecision; text-rendering:geometricPrecision; image-rendering:optimizeQuality; fill-rule:evenodd; clip-rule:evenodd"
viewBox="0 0 10.49 10.49"
 xmlns:xlink="http://www.w3.org/1999/xlink">
 <defs>
  <style type="text/css">
   <![CDATA[
    .fil0 {fill:#ffffff}
   ]]>
  </style>
 </defs>
 <g id="Camada_x0020_1">
  <metadata id="CorelCorpID_0Corel-Layer"/>
  <g id="_2893902605232">
   <path class="fil0" d="M2.91 5.11c0,1.48 0.64,1.56 1.02,2.59 0.34,0.9 -0.46,0.76 2.24,0.76 0.45,0 0.04,-0.37 0.75,-1.45 0.77,-1.14 1.02,-2.45 -0.03,-3.51 -1.36,-1.38 -3.98,-0.46 -3.98,1.61zm2.29 -1.57c0.14,0 0.28,0.02 0.41,0.06 0.04,0.01 0.08,0.02 0.12,0.03 0.07,0.03 0.13,0.06 -0.02,0.05 -0.04,0 -0.07,0 -0.11,0 -0.99,0.04 -1.76,0.87 -1.72,1.86 0.01,0.24 0.06,0.46 0.15,0.66 0.02,0.04 0.02,0.09 -0.04,0.01 -0.25,-0.29 -0.4,-0.65 -0.4,-1.06 0,-0.89 0.72,-1.61 1.61,-1.61z"/>
   <path class="fil0" d="M3.97 9.43c0,0.63 0.24,0.62 0.43,0.71l0.13 0.05c0.26,0.13 0.41,0.25 0.55,0.3l0.28 0c0.12,-0.04 0.27,-0.11 0.48,-0.24 0.14,-0.08 0.03,-0.02 0.18,-0.09 0.11,-0.05 0.5,-0.01 0.5,-0.73 0,-0.82 -0.81,-0.62 -1.94,-0.62 -0.41,0 -0.61,0.21 -0.61,0.62z"/>
   <path class="fil0" d="M7.4 2.64c0,0.33 0.11,0.44 0.44,0.44 0.18,0 1.24,-0.92 1.24,-1.32 0,-0.28 -0.21,-0.35 -0.44,-0.35 -0.25,0 -0.53,0.39 -0.69,0.55 -0.16,0.16 -0.55,0.44 -0.55,0.68z"/>
   <path class="fil0" d="M1.41 1.76c0,0.36 0.96,1.32 1.32,1.32 0.29,0 0.35,-0.21 0.35,-0.44 0,-0.24 -0.38,-0.52 -0.55,-0.68 -0.28,-0.28 -0.39,-0.55 -0.77,-0.55 -0.2,0 -0.35,0.15 -0.35,0.35z"/>
   <path class="fil0" d="M1.41 8.64c0,0.33 0.11,0.44 0.44,0.44 0.17,0 1.23,-0.92 1.23,-1.33 0,-0.28 -0.21,-0.35 -0.44,-0.35 -0.22,0 -1.23,1.01 -1.23,1.24z"/>
   <path class="fil0" d="M7.4 7.75c0,0.36 0.97,1.33 1.32,1.33 0.29,0 0.36,-0.21 0.36,-0.44 0,-0.18 -0.92,-1.24 -1.33,-1.24 -0.2,0 -0.35,0.15 -0.35,0.35z"/>
   <path class="fil0" d="M0 5.2c0,0.61 0.48,0.44 1.67,0.44 0.48,0 0.48,-0.79 0,-0.79 -0.87,0 -1.67,-0.17 -1.67,0.35z"/>
   <path class="fil0" d="M8.46 5.2c0,0.61 0.48,0.44 1.67,0.44 0.21,0 0.33,-0.15 0.36,-0.32l0 -0.15c-0.03,-0.17 -0.15,-0.32 -0.36,-0.32 -0.87,0 -1.67,-0.17 -1.67,0.35z"/>
   <path class="fil0" d="M4.85 0.35c0,1.19 -0.17,1.68 0.44,1.68 0.51,0 0.35,-0.8 0.35,-1.68 0,-0.21 -0.15,-0.32 -0.32,-0.35l-0.15 0c-0.17,0.03 -0.32,0.14 -0.32,0.35z"/>
  </g>
 </g>
</svg>
