<?xml version="1.0" encoding="UTF-8"?>
<!DOCTYPE svg PUBLIC "-//W3C//DTD SVG 1.1//EN" "http://www.w3.org/Graphics/SVG/1.1/DTD/svg11.dtd">
<!-- Creator: CorelDRAW 2018 (64 Bit Versão de avaliação) -->
<svg xmlns="http://www.w3.org/2000/svg" xml:space="preserve" width="199px" height="200px" version="1.1" style="shape-rendering:geometricPrecision; text-rendering:geometricPrecision; image-rendering:optimizeQuality; fill-rule:evenodd; clip-rule:evenodd"
viewBox="0 0 15.63 15.71"
 xmlns:xlink="http://www.w3.org/1999/xlink">
 <defs>
  <style type="text/css">
   <![CDATA[
    .fil0 {fill:#ffffff}
   ]]>
  </style>
 </defs>
 <g id="Camada_x0020_1">
  <metadata id="CorelCorpID_0Corel-Layer"/>
  <path class="fil0" d="M13.35 2.28c-1.46,-1.47 -3.42,-2.28 -5.5,-2.28 -4.29,0 -7.78,3.49 -7.78,7.78 -0.01,1.37 0.35,2.71 1.03,3.89l-1.1 4.04 4.13 -1.08c1.13,0.62 2.41,0.94 3.72,0.94l0 0c4.29,0 7.78,-3.49 7.78,-7.78 0,-2.08 -0.81,-4.04 -2.28,-5.51l0 0zm-5.5 11.98l0 0c-1.16,0 -2.3,-0.31 -3.3,-0.9l-0.23 -0.14 -2.45 0.64 0.65 -2.39 -0.15 -0.24c-0.65,-1.03 -0.99,-2.22 -0.99,-3.45 0,-3.56 2.9,-6.47 6.47,-6.47 1.73,0.01 3.35,0.68 4.58,1.9 1.22,1.22 1.89,2.85 1.89,4.58 0,3.57 -2.91,6.47 -6.47,6.47zm3.55 -4.85c-0.2,-0.09 -1.15,-0.56 -1.33,-0.63 -0.18,-0.06 -0.31,-0.1 -0.44,0.1 -0.13,0.19 -0.5,0.63 -0.61,0.76 -0.12,0.13 -0.23,0.15 -0.43,0.05 -0.19,-0.1 -0.82,-0.3 -1.56,-0.97 -0.58,-0.51 -0.97,-1.15 -1.08,-1.34 -0.12,-0.2 0,-0.29 0.08,-0.4 0.21,-0.26 0.42,-0.54 0.49,-0.67 0.06,-0.13 0.03,-0.24 -0.02,-0.34 -0.05,-0.09 -0.43,-1.05 -0.6,-1.44 -0.15,-0.38 -0.31,-0.33 -0.43,-0.33 -0.12,-0.01 -0.25,-0.01 -0.38,-0.01 -0.13,0 -0.34,0.05 -0.52,0.24 -0.17,0.2 -0.68,0.67 -0.68,1.62 0,0.96 0.7,1.89 0.8,2.02 0.1,0.13 1.37,2.09 3.32,2.93 0.46,0.2 0.83,0.32 1.11,0.41 0.46,0.15 0.89,0.13 1.22,0.08 0.38,-0.06 1.15,-0.47 1.32,-0.93 0.16,-0.45 0.16,-0.84 0.11,-0.92 -0.05,-0.08 -0.18,-0.13 -0.37,-0.23l0 0zm0 0z"/>
 </g>
</svg>
